<svg id="visual" viewBox="0 0 2000 1000" width="2000" height="1000" xmlns="http://www.w3.org/2000/svg" xmlns:xlink="http://www.w3.org/1999/xlink" version="1.1"><rect x="0" y="0" width="2000" height="1000" fill="#081516"></rect><path d="M0 594L286 608L571 580L857 525L1143 537L1429 554L1714 548L2000 573L2000 1001L1714 1001L1429 1001L1143 1001L857 1001L571 1001L286 1001L0 1001Z" fill="#54a7af"></path><path d="M0 585L286 630L571 664L857 638L1143 602L1429 588L1714 599L2000 580L2000 1001L1714 1001L1429 1001L1143 1001L857 1001L571 1001L286 1001L0 1001Z" fill="#418a8f"></path><path d="M0 760L286 736L571 682L857 720L1143 723L1429 710L1714 754L2000 759L2000 1001L1714 1001L1429 1001L1143 1001L857 1001L571 1001L286 1001L0 1001Z" fill="#306e71"></path><path d="M0 794L286 734L571 809L857 781L1143 746L1429 762L1714 729L2000 817L2000 1001L1714 1001L1429 1001L1143 1001L857 1001L571 1001L286 1001L0 1001Z" fill="#1f5455"></path><path d="M0 815L286 880L571 836L857 834L1143 866L1429 846L1714 879L2000 843L2000 1001L1714 1001L1429 1001L1143 1001L857 1001L571 1001L286 1001L0 1001Z" fill="#0e3b3a"></path><path d="M0 895L286 886L571 930L857 926L1143 889L1429 925L1714 939L2000 924L2000 1001L1714 1001L1429 1001L1143 1001L857 1001L571 1001L286 1001L0 1001Z" fill="#012322"></path></svg>